<svg width="226" height="17" viewBox="0 0 226 17" fill="none" xmlns="http://www.w3.org/2000/svg">
<path d="M225.211 11.6242L225.823 12.7762C224.977 13.6402 223.411 14.1802 221.845 14.1802C218.065 14.1802 215.455 11.6242 215.455 7.70022C215.455 4.08222 217.795 1.22021 221.737 1.22021C223.357 1.22021 224.671 1.67021 225.571 2.44422L224.869 3.59622C224.041 2.98421 223.069 2.66021 221.755 2.66021C219.019 2.66021 217.075 4.71222 217.075 7.70022C217.075 10.7062 219.073 12.7402 221.989 12.7402C223.195 12.7402 224.347 12.3262 225.211 11.6242Z" fill="#202024"/>
<path d="M207.128 13.9999V1.3999H208.658V12.5599H214.868V13.9999H207.128Z" fill="#202024"/>
<path d="M197.231 13.9999V1.3999H198.761V12.5599H204.971V13.9999H197.231Z" fill="#202024"/>
<path d="M188.964 11.8042C188.964 10.1662 184.59 10.9762 184.59 8.00621C184.59 6.58421 185.742 5.72021 187.344 5.72021C188.676 5.72021 189.648 6.20621 190.134 6.67421L189.45 7.77221C188.964 7.34021 188.262 6.98021 187.416 6.98021C186.606 6.98021 186.12 7.44821 186.12 7.98821C186.12 9.69821 190.494 8.88821 190.494 11.7322C190.494 13.4422 188.982 14.1802 187.362 14.1802C186.048 14.1802 184.752 13.4962 184.374 12.9202L185.184 11.8942C185.652 12.4342 186.714 12.9202 187.524 12.9202C188.28 12.9202 188.964 12.5422 188.964 11.8042Z" fill="#202024"/>
<path d="M178.335 10.9219V3.6499H179.775V5.8999H182.745V7.2499H179.775V10.7779C179.775 12.0559 180.189 12.7939 181.215 12.7939C181.773 12.7939 182.205 12.5599 182.493 12.3439L182.943 13.4599C182.511 13.8199 181.773 14.1439 180.873 14.1439C179.055 14.1439 178.335 12.9919 178.335 10.9219Z" fill="#202024"/>
<path d="M168.636 13.9999V5.89986H170.076V6.88986C170.634 6.27786 171.66 5.75586 172.722 5.75586C174.828 5.75586 176.088 6.78186 176.088 9.31986V13.9999H174.648V9.58986C174.648 7.89786 173.874 7.10586 172.362 7.10586C171.444 7.10586 170.598 7.55586 170.076 8.14986V13.9999H168.636Z" fill="#202024"/>
<path d="M165.674 11.9842L166.124 13.1182C165.332 13.8382 164.162 14.1802 163.082 14.1802C160.454 14.1802 158.744 12.5062 158.744 9.95021C158.744 7.59221 160.256 5.72021 162.92 5.72021C165.008 5.72021 166.682 7.19621 166.682 9.42821C166.682 9.82421 166.646 10.1482 166.592 10.4002H160.364C160.49 11.9302 161.606 12.8302 163.19 12.8302C164.234 12.8302 165.152 12.4702 165.674 11.9842ZM162.848 7.07021C161.372 7.07021 160.436 7.98821 160.274 9.23021H165.188C165.116 7.89821 164.252 7.07021 162.848 7.07021Z" fill="#202024"/>
<path d="M156.859 8.68986V13.9999H155.419V9.08586C155.419 7.75386 154.843 7.10586 153.673 7.10586C152.701 7.10586 151.927 7.60986 151.549 8.27586C151.567 8.41986 151.567 8.67186 151.567 8.85186V13.9999H150.127V8.77986C150.127 7.78986 149.533 7.10586 148.399 7.10586C147.463 7.10586 146.689 7.60986 146.275 8.20386V13.9999H144.835V5.89986H146.275V6.92586C146.869 6.22386 147.913 5.75586 148.957 5.75586C150.217 5.75586 151.099 6.31386 151.405 7.15986C151.981 6.33186 153.025 5.75586 154.249 5.75586C155.743 5.75586 156.859 6.47586 156.859 8.68986Z" fill="#202024"/>
<path d="M138.31 10.9219V3.6499H139.75V5.8999H142.72V7.2499H139.75V10.7779C139.75 12.0559 140.164 12.7939 141.19 12.7939C141.748 12.7939 142.18 12.5599 142.468 12.3439L142.918 13.4599C142.486 13.8199 141.748 14.1439 140.848 14.1439C139.03 14.1439 138.31 12.9919 138.31 10.9219Z" fill="#202024"/>
<path d="M134.859 11.8042C134.859 10.1662 130.485 10.9762 130.485 8.00621C130.485 6.58421 131.637 5.72021 133.239 5.72021C134.571 5.72021 135.543 6.20621 136.029 6.67421L135.345 7.77221C134.859 7.34021 134.157 6.98021 133.311 6.98021C132.501 6.98021 132.015 7.44821 132.015 7.98821C132.015 9.69821 136.389 8.88821 136.389 11.7322C136.389 13.4422 134.877 14.1802 133.257 14.1802C131.943 14.1802 130.647 13.4962 130.269 12.9202L131.079 11.8942C131.547 12.4342 132.609 12.9202 133.419 12.9202C134.175 12.9202 134.859 12.5422 134.859 11.8042Z" fill="#202024"/>
<path d="M127.793 11.9842L128.243 13.1182C127.451 13.8382 126.281 14.1802 125.201 14.1802C122.573 14.1802 120.863 12.5062 120.863 9.95021C120.863 7.59221 122.375 5.72021 125.039 5.72021C127.127 5.72021 128.801 7.19621 128.801 9.42821C128.801 9.82421 128.765 10.1482 128.711 10.4002H122.483C122.609 11.9302 123.725 12.8302 125.309 12.8302C126.353 12.8302 127.271 12.4702 127.793 11.9842ZM124.967 7.07021C123.491 7.07021 122.555 7.98821 122.393 9.23021H127.307C127.235 7.89821 126.371 7.07021 124.967 7.07021Z" fill="#202024"/>
<path d="M120.341 5.8999L116.759 14.0719H115.715L111.953 5.8999H113.645L115.607 10.2739C115.841 10.7959 116.093 11.4799 116.291 12.0739C116.471 11.4799 116.723 10.7779 116.957 10.2379L118.811 5.8999H120.341Z" fill="#202024"/>
<path d="M103.28 13.9999V5.89986H104.72V6.88986C105.278 6.27786 106.304 5.75586 107.366 5.75586C109.472 5.75586 110.732 6.78186 110.732 9.31986V13.9999H109.292V9.58986C109.292 7.89786 108.518 7.10586 107.006 7.10586C106.088 7.10586 105.242 7.55586 104.72 8.14986V13.9999H103.28Z" fill="#202024"/>
<path d="M98.2051 13.9999V1.3999H99.7351V13.9999H98.2051Z" fill="#202024"/>
<path d="M77.7529 13.9999V1.3999H79.3009L84.0349 7.8619L88.5709 1.3999H90.0289V13.9999H88.4989V3.8119L84.0349 10.0759H83.8009L79.2829 3.8659V13.9999H77.7529Z" fill="#202024"/>
<path d="M67.8564 13.9999V1.3999H69.3864V12.5599H75.5964V13.9999H67.8564Z" fill="#202024"/>
<path d="M59.6966 13.1718C59.6966 12.6138 60.0566 12.2178 60.7226 12.2178C61.4786 12.2178 62.0186 12.9018 62.0186 13.9638C62.0186 15.3138 61.2086 16.2858 60.0386 16.6278L59.6426 15.9438C60.1286 15.7818 60.6326 15.4038 60.7946 14.7378C60.9026 14.2698 60.8666 13.9998 60.7766 13.8378C60.6866 13.9818 60.5246 13.9998 60.3806 13.9998C60.0206 13.9998 59.6966 13.6398 59.6966 13.1718Z" fill="#202024"/>
<path d="M53.5904 14.1802C51.8444 14.1802 50.4224 13.4242 49.7744 12.0202L50.6024 10.9942C51.2324 12.1642 52.3664 12.7402 53.5364 12.7402C55.1024 12.7402 56.0204 11.7502 56.0204 10.4722C56.0204 9.12222 54.9584 8.27622 53.4464 8.27622H52.4564V6.83622H53.3564C54.4724 6.83622 55.5344 5.95422 55.5344 4.65821C55.5344 3.41622 54.7604 2.66021 53.4824 2.66021C52.2404 2.66021 51.4484 3.25422 50.8904 4.22621L50.0804 3.23621C50.6564 1.95821 51.9524 1.22021 53.5904 1.22021C55.6964 1.22021 57.0644 2.42622 57.0644 4.40621C57.0644 5.77422 56.3804 6.89022 55.1024 7.43022V7.48421C56.6684 7.73621 57.5504 9.05022 57.5504 10.5262C57.5504 12.7762 55.8404 14.1802 53.5904 14.1802Z" fill="#202024"/>
<path d="M40.4619 13.9999V12.8299C42.5139 10.8139 46.0959 7.41186 46.0959 4.72986C46.0959 3.61386 45.4119 2.69586 44.0439 2.69586C43.0359 2.69586 42.0459 3.36186 41.7939 4.71186L40.5699 4.20786C40.8759 2.33586 42.4059 1.25586 44.1699 1.25586C46.5279 1.25586 47.6259 2.87586 47.6259 4.44186C47.6259 7.96986 43.3419 11.7679 42.3339 12.6499H48.1479V13.9999H40.4619Z" fill="#202024"/>
<path d="M30.4824 7.69986C30.4824 3.91986 31.7244 1.25586 34.5684 1.25586C37.4124 1.25586 38.6544 3.91986 38.6544 7.69986C38.6544 11.4979 37.4484 14.1439 34.6044 14.1439C31.7604 14.1439 30.4824 11.4979 30.4824 7.69986ZM32.0124 7.69986C32.0124 10.9399 32.8224 12.7939 34.6044 12.7939C36.4404 12.7939 37.1244 10.9579 37.1244 7.69986C37.1244 4.44186 36.4044 2.60586 34.5684 2.60586C32.7324 2.60586 32.0124 4.47786 32.0124 7.69986Z" fill="#202024"/>
<path d="M20.8096 13.9999V12.8299C22.8616 10.8139 26.4436 7.41186 26.4436 4.72986C26.4436 3.61386 25.7596 2.69586 24.3916 2.69586C23.3836 2.69586 22.3936 3.36186 22.1416 4.71186L20.9176 4.20786C21.2236 2.33586 22.7536 1.25586 24.5176 1.25586C26.8756 1.25586 27.9736 2.87586 27.9736 4.44186C27.9736 7.96986 23.6896 11.7679 22.6816 12.6499H28.4956V13.9999H20.8096Z" fill="#202024"/>
<path d="M0.349609 8.02196C0.349609 3.66596 3.71561 0.209961 8.16161 0.209961C12.6076 0.209961 15.9736 3.66596 15.9736 8.02196C15.9736 12.378 12.6076 15.834 8.16161 15.834C3.71561 15.834 0.349609 12.378 0.349609 8.02196ZM1.60961 8.03996C1.60961 11.64 4.38161 14.574 8.16161 14.574C11.9236 14.574 14.7136 11.64 14.7136 8.03996C14.7136 4.42196 11.9236 1.46996 8.16161 1.46996C4.38161 1.46996 1.60961 4.42196 1.60961 8.03996ZM10.7356 9.78596L11.4196 10.83C10.7356 11.712 9.54761 12.18 8.30561 12.18C5.73161 12.18 3.96761 10.506 3.96761 7.94996C3.96761 5.59196 5.69561 3.71996 8.07161 3.71996C9.36761 3.71996 10.5016 4.02596 11.2576 4.78196L10.5916 5.91596C9.90761 5.28596 9.11561 5.06996 8.26961 5.06996C6.81161 5.06996 5.49761 6.23996 5.49761 7.94996C5.49761 9.73196 6.81161 10.83 8.41361 10.83C9.38561 10.83 10.1956 10.398 10.7356 9.78596Z" fill="#202024"/>
</svg>
