<svg width="128" height="68" viewBox="0 0 128 68" fill="none" xmlns="http://www.w3.org/2000/svg">
<path d="M127.698 0.510254H0.698242V67.6384H115.649L127.698 0.510254Z" fill="#B01917"/>
<path d="M15.6006 49.2667V47.9222H16.2267C16.6475 47.9222 17.0478 47.8914 17.4378 47.8349C17.8278 47.7734 18.187 47.6502 18.5154 47.4552C18.8439 47.2602 19.1056 46.9625 19.3006 46.5571C19.4956 46.1517 19.5931 45.6077 19.5931 44.9201V21.8684C19.5931 21.268 19.4956 20.8061 19.3006 20.4777C19.1056 20.1493 18.8439 19.8927 18.5154 19.7131C18.187 19.5334 17.8278 19.4205 17.4378 19.3744C17.0478 19.3282 16.6475 19.3077 16.2267 19.3077H15.6006V17.9631C16.7963 17.9631 17.9766 17.9939 19.1415 18.0504C20.3064 18.112 21.4867 18.1376 22.6824 18.1376C23.8781 18.1376 24.9557 18.1068 26.0899 18.0504C27.224 17.9888 28.3632 17.9631 29.4973 17.9631V19.3077H28.3786C27.9578 19.3077 27.5627 19.3231 27.188 19.3538C26.8134 19.3846 26.4953 19.4719 26.2233 19.6207C25.9564 19.7695 25.7358 20.0107 25.5716 20.3391C25.4073 20.6676 25.3252 21.1294 25.3252 21.7298V44.8739C25.3252 45.772 25.5921 46.3929 26.1309 46.7367C26.6697 47.0806 27.2958 47.2961 28.0143 47.3885C28.4299 47.4193 28.8456 47.4398 29.2459 47.4552C29.6513 47.4706 30.0618 47.4757 30.4775 47.4757C31.822 47.4757 32.9818 47.4141 33.9517 47.2961C34.9216 47.1781 35.7683 46.9163 36.4867 46.5109C37.2052 46.1055 37.8107 45.5154 38.3034 44.7405C38.796 43.9656 39.2373 42.9341 39.6274 41.6461H40.9257C40.6845 42.9341 40.4176 44.2017 40.12 45.4589C39.8224 46.7162 39.535 47.9837 39.2681 49.2718C37.2924 49.2718 35.3218 49.241 33.3461 49.1846C31.3704 49.123 29.3998 49.0973 27.4241 49.0973C25.4484 49.0973 23.4778 49.1281 21.5021 49.1846C19.5264 49.2462 17.5558 49.2718 15.5801 49.2718L15.6006 49.2667Z" fill="white"/>
<path d="M42.6914 47.9223H43.3175C44.2155 47.8915 44.9083 47.7735 45.401 47.5631C45.8936 47.3527 46.2734 47.0499 46.5454 46.6445C46.8122 46.2391 47.0021 45.7413 47.1047 45.1409C47.2073 44.5405 47.3048 43.8426 47.3972 43.0318L48.7417 30.5617C48.9213 28.9452 49.0548 27.4518 49.1471 26.0765C49.2344 24.7012 49.2806 23.5671 49.2806 22.6691C49.2806 22.043 49.1677 21.5093 48.9419 21.0782C48.7161 20.6472 48.4236 20.3033 48.0695 20.0468C47.7103 19.7953 47.2997 19.6054 46.8379 19.4874C46.376 19.3694 45.8885 19.3078 45.3805 19.3078H44.7954V17.9633C45.7243 17.9633 46.6326 17.9941 47.5306 18.0505C48.4287 18.1121 49.337 18.1377 50.2659 18.1377C50.9535 18.1377 51.6258 18.107 52.2826 18.0505C52.9395 17.9889 53.6117 17.9633 54.2994 17.9633L64.7938 41.4204L75.4216 17.9633C76.1092 17.9633 76.8431 17.9941 77.618 18.0505C78.3929 18.1121 79.1883 18.1377 79.994 18.1377C80.7996 18.1377 81.5643 18.107 82.37 18.0505C83.1756 17.9889 83.971 17.9633 84.7459 17.9633V19.3078H84.3405C83.9813 19.3078 83.5708 19.3232 83.1089 19.354C82.6471 19.3848 82.1955 19.4669 81.7644 19.6003C81.3282 19.7337 80.9639 19.939 80.6662 20.2058C80.3686 20.4727 80.2044 20.8627 80.1736 21.3707C80.1428 21.9711 80.1582 22.5767 80.2198 23.1874C80.2813 23.798 80.3378 24.3625 80.3994 24.8706L82.1031 45.4129C82.1647 46.5213 82.5136 47.1987 83.1551 47.4553C83.7966 47.7119 84.7767 47.8658 86.0905 47.9274V49.2719C85.0436 49.2104 83.9762 49.1693 82.8831 49.1385C81.7901 49.1077 80.7073 49.0923 79.6296 49.0923C78.3723 49.0923 77.1407 49.1077 75.9296 49.1385C74.7185 49.1693 73.4869 49.2155 72.2297 49.2719V47.9274C73.3946 47.8658 74.3285 47.7427 75.0316 47.5477C75.7346 47.3527 76.0836 46.7779 76.0836 45.8183V44.9664C76.0836 44.6688 76.0682 44.2172 76.0374 43.6219L74.7801 24.6961H74.6929L63.2543 49.9493H62.1766L51.323 25.1939H51.2358L49.7116 44.8843C49.7116 45.6028 49.7937 46.1621 49.958 46.5675C50.1222 46.9729 50.3685 47.2706 50.6969 47.4656C51.0254 47.6606 51.4205 47.7786 51.8875 47.8248C52.3493 47.871 52.8984 47.9069 53.5245 47.9377H54.0633V49.2822C53.0473 49.2206 52.0312 49.1796 51.0151 49.1488C49.999 49.118 48.9829 49.1026 47.9668 49.1026C47.0996 49.1026 46.2169 49.118 45.3189 49.1488C44.4208 49.1796 43.5382 49.2257 42.6709 49.2822V47.9377L42.6914 47.9223Z" fill="white"/>
<path d="M86.6909 47.9223C87.3785 47.9223 87.9636 47.9018 88.4408 47.8556C88.9181 47.8094 89.3286 47.6914 89.6724 47.4964C90.0162 47.3013 90.2831 47.0088 90.4781 46.6188C90.6731 46.2288 90.8271 45.7054 90.9502 45.0485L94.5835 25.7173C94.8811 24.1316 95.0761 23.018 95.1685 22.3765C95.2557 21.7351 95.3019 21.263 95.3019 20.9653C95.3019 20.2161 94.9889 19.7645 94.3577 19.5952C93.7316 19.4309 92.7412 19.3334 91.3967 19.3026L91.5763 17.9581C92.772 17.9889 93.9677 18.0248 95.1634 18.071C96.3591 18.1172 97.5548 18.1377 98.7504 18.1377C99.7973 18.1377 100.865 18.1172 101.958 18.071C103.051 18.0248 104.164 17.9889 105.299 17.9581L105.073 19.3026C103.759 19.3026 102.784 19.4207 102.158 19.6619C101.532 19.9031 101.126 20.5445 100.947 21.5914L97.1801 41.5487C97.0313 42.3287 96.9133 42.9856 96.8209 43.5244C96.7285 44.0632 96.6567 44.5046 96.5951 44.8484C96.5335 45.1922 96.4976 45.4745 96.4822 45.7003C96.4668 45.926 96.4617 46.1108 96.4617 46.2596C96.4617 47.0088 96.7285 47.4656 97.2674 47.6298C97.8062 47.794 98.7299 47.8915 100.049 47.9223L99.8692 49.2668C98.8839 49.236 97.8062 49.2001 96.6413 49.1539C95.4764 49.1077 94.2961 49.0872 93.1004 49.0872C92.0535 49.0872 90.9861 49.1077 89.8931 49.1539C88.8 49.2001 87.6557 49.236 86.46 49.2668L86.6858 47.9223H86.6909Z" fill="white"/>
</svg>
